<?xml version="1.0" encoding="utf-8"?>
<!-- Generator: Adobe Illustrator 18.1.1, SVG Export Plug-In . SVG Version: 6.00 Build 0)  -->
<svg version="1.2" baseProfile="tiny" id="Layer_1" xmlns="http://www.w3.org/2000/svg" xmlns:xlink="http://www.w3.org/1999/xlink"
	 x="0px" y="0px" viewBox="0 0 3328.8 413.3" xml:space="preserve">
<g>
	<g>
		<rect x="1404.3" y="330.9" fill="#4E4F4F" width="28.2" height="35.6"/>
		<g>
			<rect x="1404.3" y="364" fill="#4E4F4F" width="11.1" height="43.4"/>
		</g>
		<g>
			<rect x="1421.2" y="363.6" fill="#4E4F4F" width="11.3" height="43.9"/>
		</g>
		<circle fill="#4E4F4F" cx="1432.3" cy="366.5" r="5.4"/>
		<circle fill="#4E4F4F" cx="1432.3" cy="336.3" r="5.4"/>
		<rect x="1426.9" y="336.3" fill="#4E4F4F" width="10.8" height="30.2"/>
		<circle fill="#4E4F4F" cx="1404.3" cy="366.5" r="5.4"/>
		<circle fill="#4E4F4F" cx="1404.3" cy="336.3" r="5.4"/>
		<rect x="1398.9" y="336.3" fill="#4E4F4F" width="10.8" height="30.2"/>
		<circle fill="#4E4F4F" cx="1418.4" cy="315.5" r="11.7"/>
	</g>
	<g>
		<rect x="1449.2" y="330.9" fill="#4E4F4F" width="28.2" height="35.6"/>
		<g>
			<rect x="1449.2" y="364" fill="#4E4F4F" width="11.1" height="43.4"/>
		</g>
		<g>
			<rect x="1466.2" y="363.6" fill="#4E4F4F" width="11.3" height="43.9"/>
		</g>
		<circle fill="#4E4F4F" cx="1477.3" cy="366.5" r="5.4"/>
		<circle fill="#4E4F4F" cx="1477.3" cy="336.3" r="5.4"/>
		<rect x="1471.9" y="336.3" fill="#4E4F4F" width="10.8" height="30.2"/>
		<circle fill="#4E4F4F" cx="1449.2" cy="366.5" r="5.4"/>
		<circle fill="#4E4F4F" cx="1449.2" cy="336.3" r="5.4"/>
		<rect x="1443.8" y="336.3" fill="#4E4F4F" width="10.8" height="30.2"/>
		<circle fill="#4E4F4F" cx="1463.3" cy="315.5" r="11.7"/>
	</g>
	<g>
		<rect x="1494.2" y="330.9" fill="#4E4F4F" width="28.2" height="35.6"/>
		<g>
			<rect x="1494.2" y="364" fill="#4E4F4F" width="11.1" height="43.4"/>
		</g>
		<g>
			<rect x="1511.2" y="363.6" fill="#4E4F4F" width="11.3" height="43.9"/>
		</g>
		<circle fill="#4E4F4F" cx="1522.3" cy="366.5" r="5.4"/>
		<circle fill="#4E4F4F" cx="1522.3" cy="336.3" r="5.4"/>
		<rect x="1516.8" y="336.3" fill="#4E4F4F" width="10.8" height="30.2"/>
		<circle fill="#4E4F4F" cx="1494.2" cy="366.5" r="5.4"/>
		<circle fill="#4E4F4F" cx="1494.2" cy="336.3" r="5.4"/>
		<rect x="1488.8" y="336.3" fill="#4E4F4F" width="10.8" height="30.2"/>
		<circle fill="#4E4F4F" cx="1508.3" cy="315.5" r="11.7"/>
	</g>
	<g>
		<rect x="1539.2" y="330.9" fill="#4E4F4F" width="28.2" height="35.6"/>
		<g>
			<rect x="1539.2" y="364" fill="#4E4F4F" width="11.1" height="43.4"/>
		</g>
		<g>
			<rect x="1556.1" y="363.6" fill="#4E4F4F" width="11.3" height="43.9"/>
		</g>
		<circle fill="#4E4F4F" cx="1567.2" cy="366.5" r="5.4"/>
		<circle fill="#4E4F4F" cx="1567.2" cy="336.3" r="5.4"/>
		<rect x="1561.8" y="336.3" fill="#4E4F4F" width="10.8" height="30.2"/>
		<circle fill="#4E4F4F" cx="1539.2" cy="366.5" r="5.4"/>
		<circle fill="#4E4F4F" cx="1539.2" cy="336.3" r="5.4"/>
		<rect x="1533.7" y="336.3" fill="#4E4F4F" width="10.8" height="30.2"/>
		<circle fill="#4E4F4F" cx="1553.3" cy="315.5" r="11.7"/>
	</g>
	<g>
		<rect x="1584.1" y="330.9" fill="#4E4F4F" width="28.2" height="35.6"/>
		<g>
			<rect x="1584.1" y="364" fill="#4E4F4F" width="11.1" height="43.4"/>
		</g>
		<g>
			<rect x="1601.1" y="363.6" fill="#4E4F4F" width="11.3" height="43.9"/>
		</g>
		<circle fill="#4E4F4F" cx="1612.2" cy="366.5" r="5.4"/>
		<circle fill="#4E4F4F" cx="1612.2" cy="336.3" r="5.4"/>
		<rect x="1606.8" y="336.3" fill="#4E4F4F" width="10.8" height="30.2"/>
		<circle fill="#4E4F4F" cx="1584.1" cy="366.5" r="5.4"/>
		<circle fill="#4E4F4F" cx="1584.1" cy="336.3" r="5.4"/>
		<rect x="1578.7" y="336.3" fill="#4E4F4F" width="10.8" height="30.2"/>
		<circle fill="#4E4F4F" cx="1598.2" cy="315.5" r="11.7"/>
	</g>
	<g>
		<rect x="1629.1" y="330.9" fill="#D52D28" width="28.2" height="35.6"/>
		<g>
			<rect x="1629.1" y="364" fill="#D52D28" width="11.1" height="43.4"/>
		</g>
		<g>
			<rect x="1646" y="363.6" fill="#D52D28" width="11.3" height="43.9"/>
		</g>
		<circle fill="#D52D28" cx="1657.1" cy="366.5" r="5.4"/>
		<circle fill="#D52D28" cx="1657.1" cy="336.3" r="5.4"/>
		<rect x="1651.7" y="336.3" fill="#D52D28" width="10.8" height="30.2"/>
		<circle fill="#D52D28" cx="1629.1" cy="366.5" r="5.4"/>
		<circle fill="#D52D28" cx="1629.1" cy="336.3" r="5.4"/>
		<rect x="1623.7" y="336.3" fill="#D52D28" width="10.8" height="30.2"/>
		<circle fill="#D52D28" cx="1643.2" cy="315.5" r="11.7"/>
	</g>
	<g>
		<rect x="1674" y="330.9" fill="#4E4F4F" width="28.2" height="35.6"/>
		<g>
			<rect x="1674" y="364" fill="#4E4F4F" width="11.1" height="43.4"/>
		</g>
		<g>
			<rect x="1691" y="363.6" fill="#4E4F4F" width="11.3" height="43.9"/>
		</g>
		<circle fill="#4E4F4F" cx="1702.1" cy="366.5" r="5.4"/>
		<circle fill="#4E4F4F" cx="1702.1" cy="336.3" r="5.4"/>
		<rect x="1696.7" y="336.3" fill="#4E4F4F" width="10.8" height="30.2"/>
		<circle fill="#4E4F4F" cx="1674" cy="366.5" r="5.4"/>
		<circle fill="#4E4F4F" cx="1674" cy="336.3" r="5.4"/>
		<rect x="1668.6" y="336.3" fill="#4E4F4F" width="10.8" height="30.2"/>
		<circle fill="#4E4F4F" cx="1688.2" cy="315.5" r="11.7"/>
	</g>
	<g>
		<rect x="1719" y="330.9" fill="#4E4F4F" width="28.2" height="35.6"/>
		<g>
			<rect x="1719" y="364" fill="#4E4F4F" width="11.1" height="43.4"/>
		</g>
		<g>
			<rect x="1736" y="363.6" fill="#4E4F4F" width="11.3" height="43.9"/>
		</g>
		<circle fill="#4E4F4F" cx="1747.1" cy="366.5" r="5.4"/>
		<circle fill="#4E4F4F" cx="1747.1" cy="336.3" r="5.4"/>
		<rect x="1741.6" y="336.3" fill="#4E4F4F" width="10.8" height="30.2"/>
		<circle fill="#4E4F4F" cx="1719" cy="366.5" r="5.4"/>
		<circle fill="#4E4F4F" cx="1719" cy="336.3" r="5.4"/>
		<rect x="1713.6" y="336.3" fill="#4E4F4F" width="10.8" height="30.2"/>
		<circle fill="#4E4F4F" cx="1733.1" cy="315.5" r="11.7"/>
	</g>
	<g>
		<rect x="1764" y="330.9" fill="#4E4F4F" width="28.2" height="35.6"/>
		<g>
			<rect x="1764" y="364" fill="#4E4F4F" width="11.1" height="43.4"/>
		</g>
		<g>
			<rect x="1780.9" y="363.6" fill="#4E4F4F" width="11.3" height="43.9"/>
		</g>
		<circle fill="#4E4F4F" cx="1792" cy="366.5" r="5.4"/>
		<circle fill="#4E4F4F" cx="1792" cy="336.3" r="5.4"/>
		<rect x="1786.6" y="336.3" fill="#4E4F4F" width="10.8" height="30.2"/>
		<circle fill="#4E4F4F" cx="1764" cy="366.5" r="5.4"/>
		<circle fill="#4E4F4F" cx="1764" cy="336.3" r="5.4"/>
		<rect x="1758.5" y="336.3" fill="#4E4F4F" width="10.8" height="30.2"/>
		<circle fill="#4E4F4F" cx="1778.1" cy="315.5" r="11.7"/>
	</g>
	<g>
		<rect x="1808.9" y="330.9" fill="#4E4F4F" width="28.2" height="35.6"/>
		<g>
			<rect x="1808.9" y="364" fill="#4E4F4F" width="11.1" height="43.4"/>
		</g>
		<g>
			<rect x="1825.9" y="363.6" fill="#4E4F4F" width="11.3" height="43.9"/>
		</g>
		<circle fill="#4E4F4F" cx="1837" cy="366.5" r="5.4"/>
		<circle fill="#4E4F4F" cx="1837" cy="336.3" r="5.4"/>
		<rect x="1831.6" y="336.3" fill="#4E4F4F" width="10.8" height="30.2"/>
		<circle fill="#4E4F4F" cx="1808.9" cy="366.5" r="5.4"/>
		<circle fill="#4E4F4F" cx="1808.9" cy="336.3" r="5.4"/>
		<rect x="1803.5" y="336.3" fill="#4E4F4F" width="10.8" height="30.2"/>
		<circle fill="#4E4F4F" cx="1823" cy="315.5" r="11.7"/>
	</g>
	<rect x="3238.4" y="254" fill="#676868" width="17.7" height="12.5"/>
	<circle fill="#4E4F4F" cx="3247.2" cy="250.5" r="3.7"/>
	<path fill="#4E4F4F" d="M3222.9,285v91.7c0,13.4,10.9,24.3,24.3,24.3s24.3-10.9,24.3-24.3V285c0-0.9-0.1-1.8-0.2-2.7H3223
		C3222.9,283.2,3222.9,284.1,3222.9,285z"/>
	<rect x="1929.1" y="281.1" fill="#4E4F4F" width="62.5" height="108.4"/>
	<rect x="1964.1" y="309.1" fill="#404040" width="55.5" height="98.6"/>
	<g>
		<g>
			<polygon fill="#404040" points="405.8,410.6 340.1,306.8 282.1,306.8 216.4,410.6 			"/>
			<polygon fill="#676868" points="311.1,260.9 282.1,306.8 340.1,306.8 			"/>
			<polygon fill="#404040" points="589,410.6 530.8,318.5 479.3,318.5 421.2,410.6 			"/>
			<polygon fill="#676868" points="505.1,277.9 479.3,318.5 530.8,318.5 			"/>
			<polygon fill="#4E4F4F" points="537.9,410.6 455.4,280.1 382.5,280.1 300,410.6 			"/>
			<polygon fill="#676868" points="418.9,222.5 382.5,280.1 455.4,280.1 			"/>
		</g>
		<path fill="#676868" d="M391.5,400.7l-9.4-13.2h4.4c1.1,0,1.4-0.7,0.8-1.6l-9.5-13.4h2.9c1.1,0,1.4-0.7,0.8-1.6l-8.6-12.2
			c-0.6-0.9-1.6-0.9-2.2,0l-8.6,12.2c-0.6,0.9-0.2,1.6,0.8,1.6h2.9l-9.5,13.4c-0.6,0.9-0.2,1.6,0.8,1.6h4.4l-9.4,13.2
			c-0.6,0.9-0.2,1.6,0.8,1.6h11.3v9h15.2v-9h11.3C391.8,402.2,392.1,401.5,391.5,400.7z"/>
		<path fill="#676868" d="M442.3,400.7l-9.4-13.2h4.4c1.1,0,1.4-0.7,0.8-1.6l-9.5-13.4h2.9c1.1,0,1.4-0.7,0.8-1.6l-8.6-12.2
			c-0.6-0.9-1.6-0.9-2.2,0l-8.6,12.2c-0.6,0.9-0.2,1.6,0.8,1.6h2.9l-9.5,13.4c-0.6,0.9-0.2,1.6,0.8,1.6h4.4l-9.4,13.2
			c-0.6,0.9-0.2,1.6,0.8,1.6h11.3v9h15.2v-9h11.3C442.5,402.2,442.9,401.5,442.3,400.7z"/>
		<path fill="#676868" d="M493,400.7l-9.4-13.2h4.4c1.1,0,1.4-0.7,0.8-1.6l-9.5-13.4h2.9c1.1,0,1.4-0.7,0.8-1.6l-8.6-12.2
			c-0.6-0.9-1.6-0.9-2.2,0l-8.6,12.2c-0.6,0.9-0.2,1.6,0.8,1.6h2.9l-9.5,13.4c-0.6,0.9-0.2,1.6,0.8,1.6h4.4l-9.4,13.2
			c-0.6,0.9-0.2,1.6,0.8,1.6h11.3v9h15.2v-9h11.3C493.3,402.2,493.6,401.5,493,400.7z"/>
		<path fill="#676868" d="M543.8,400.7l-9.4-13.2h4.4c1.1,0,1.4-0.7,0.8-1.6l-9.5-13.4h2.9c1.1,0,1.4-0.7,0.8-1.6l-8.6-12.2
			c-0.6-0.9-1.6-0.9-2.2,0l-8.6,12.2c-0.6,0.9-0.2,1.6,0.8,1.6h2.9l-9.5,13.4c-0.6,0.9-0.2,1.6,0.8,1.6h4.4l-9.4,13.2
			c-0.6,0.9-0.2,1.6,0.8,1.6h11.3v9h15.2v-9H543C544,402.2,544.4,401.5,543.8,400.7z"/>
	</g>
	<g>
		<path fill="#676868" d="M694.1,231.5h-11.5c-3.3,0-5.9-2.7-5.9-5.9v-61.8c0-3.3,2.7-5.9,5.9-5.9h11.5c3.3,0,5.9,2.7,5.9,5.9v61.8
			C700.1,228.9,697.4,231.5,694.1,231.5z"/>
		<path fill="#4E4F4F" d="M709.3,341.3h-41.9c-11.8,0-21.5-9.7-21.5-21.5v-97.3c0-11.8,9.7-21.5,21.5-21.5h41.9
			c11.8,0,21.5,9.7,21.5,21.5v97.3C730.8,331.6,721.1,341.3,709.3,341.3z"/>
		<rect x="618" y="300.3" fill="#4E4F4F" width="140.8" height="109.4"/>
		<rect x="559.9" y="305.3" fill="#4E4F4F" width="256.9" height="104.4"/>
		<polygon fill="#4E4F4F" points="688.4,269.5 688.4,269.6 688.4,269.5 618,300.3 674.4,300.3 702.4,300.3 758.8,300.3 		"/>
		<g>
			<rect x="633" y="318.2" fill="#404040" width="16.4" height="76.1"/>
			<rect x="656.6" y="318.2" fill="#404040" width="16.4" height="76.1"/>
			<rect x="680.2" y="318.2" fill="#404040" width="16.4" height="76.1"/>
			<rect x="703.7" y="318.2" fill="#404040" width="16.4" height="76.1"/>
			<rect x="727.3" y="318.2" fill="#404040" width="16.4" height="76.1"/>
		</g>
		<g>
			<path fill="#282827" d="M665.7,257c0-3.3-2.7-6-6-6c-3.3,0-6,2.7-6,6v12.6h11.9V257z"/>
			<path fill="#282827" d="M694.3,257c0-3.3-2.7-6-6-6c-3.3,0-6,2.7-6,6v12.6h11.9V257z"/>
			<path fill="#282827" d="M722.9,257c0-3.3-2.7-6-6-6c-3.3,0-6,2.7-6,6v12.6h11.9V257z"/>
		</g>
		<g>
			<g>
				<rect x="762" y="329.7" fill="#282827" width="8.2" height="10.5"/>
				<rect x="762" y="349.8" fill="#282827" width="8.2" height="15.7"/>
				<path fill="#282827" d="M771.7,380.6c0-2.7-2.2-4.8-4.8-4.8s-4.8,2.2-4.8,4.8v9h9.7V380.6z"/>
				<rect x="781.5" y="329.7" fill="#282827" width="8.2" height="10.5"/>
				<rect x="781.5" y="349.8" fill="#282827" width="8.2" height="15.7"/>
				<path fill="#282827" d="M791.2,380.6c0-2.7-2.2-4.8-4.8-4.8c-2.7,0-4.8,2.2-4.8,4.8v9h9.7V380.6z"/>
				<rect x="801" y="329.7" fill="#282827" width="8.2" height="10.5"/>
				<rect x="801" y="349.8" fill="#282827" width="8.2" height="15.7"/>
				<path fill="#282827" d="M810.7,380.6c0-2.7-2.2-4.8-4.8-4.8s-4.8,2.2-4.8,4.8v9h9.7V380.6z"/>
			</g>
			<g>
				<rect x="566.1" y="329.7" fill="#282827" width="8.2" height="10.5"/>
				<rect x="566.1" y="349.8" fill="#282827" width="8.2" height="15.7"/>
				<path fill="#282827" d="M575.7,380.6c0-2.7-2.2-4.8-4.8-4.8s-4.8,2.2-4.8,4.8v9h9.7V380.6z"/>
				<rect x="585.6" y="329.7" fill="#282827" width="8.2" height="10.5"/>
				<rect x="585.6" y="349.8" fill="#282827" width="8.2" height="15.7"/>
				<path fill="#282827" d="M595.2,380.6c0-2.7-2.2-4.8-4.8-4.8c-2.7,0-4.8,2.2-4.8,4.8v9h9.7V380.6z"/>
				<rect x="605.1" y="329.7" fill="#282827" width="8.2" height="10.5"/>
				<rect x="605.1" y="349.8" fill="#282827" width="8.2" height="15.7"/>
				<path fill="#282827" d="M614.7,380.6c0-2.7-2.2-4.8-4.8-4.8s-4.8,2.2-4.8,4.8v9h9.7V380.6z"/>
			</g>
		</g>
		<path fill="#676868" d="M652.8,399.2l-9.4-13.2h4.4c1.1,0,1.4-0.7,0.8-1.6l-9.5-13.4h2.9c1.1,0,1.4-0.7,0.8-1.6l-8.6-12.2
			c-0.6-0.9-1.6-0.9-2.2,0l-8.6,12.2c-0.6,0.9-0.2,1.6,0.8,1.6h2.9l-9.5,13.4c-0.6,0.9-0.2,1.6,0.8,1.6h4.4l-9.4,13.2
			c-0.6,0.9-0.2,1.6,0.8,1.6h11.3v9h15.2v-9H652C653,400.8,653.4,400.1,652.8,399.2z"/>
		<path fill="#676868" d="M763.5,399.2l-9.4-13.2h4.4c1.1,0,1.4-0.7,0.8-1.6l-9.5-13.4h2.9c1.1,0,1.4-0.7,0.8-1.6l-8.6-12.2
			c-0.6-0.9-1.6-0.9-2.2,0l-8.6,12.2c-0.6,0.9-0.2,1.6,0.8,1.6h2.9l-9.5,13.4c-0.6,0.9-0.2,1.6,0.8,1.6h4.4l-9.4,13.2
			c-0.6,0.9-0.2,1.6,0.8,1.6h11.3v9h15.2v-9h11.3C763.7,400.8,764.1,400.1,763.5,399.2z"/>
	</g>
	<g>
		<g>
			<rect x="32.5" y="271.4" fill="#4E4F4F" width="118.2" height="28.1"/>
			<rect x="133.5" y="299.5" fill="#4E4F4F" width="50.5" height="110.4"/>
			<polygon fill="#404040" points="133.5,299.5 158.7,253.4 184,299.5 			"/>
			<g>
				<rect x="151.7" y="319.5" fill="#282827" width="14.1" height="8.7"/>
				<rect x="142" y="319.5" fill="#282827" width="5.3" height="8.7"/>
				<rect x="170.1" y="319.5" fill="#282827" width="5.3" height="8.7"/>
			</g>
			<g>
				<rect x="151.7" y="333.6" fill="#282827" width="14.1" height="8.7"/>
				<rect x="142" y="333.6" fill="#282827" width="5.3" height="8.7"/>
				<rect x="170.1" y="333.6" fill="#282827" width="5.3" height="8.7"/>
			</g>
			<g>
				<rect x="151.7" y="347.8" fill="#282827" width="14.1" height="8.7"/>
				<rect x="142" y="347.8" fill="#282827" width="5.3" height="8.7"/>
				<rect x="170.1" y="347.8" fill="#282827" width="5.3" height="8.7"/>
			</g>
			<g>
				<rect x="151.7" y="362" fill="#282827" width="14.1" height="8.7"/>
				<rect x="142" y="362" fill="#282827" width="5.3" height="8.7"/>
				<rect x="170.1" y="362" fill="#282827" width="5.3" height="8.7"/>
			</g>
			<polygon fill="#676868" points="158.7,278.1 151.5,291.3 151.5,299.5 165.9,299.5 165.9,291.3 			"/>
			<rect x="0" y="299.5" fill="#4E4F4F" width="50.5" height="110.4"/>
			<polygon fill="#404040" points="0,299.5 25.3,253.4 50.5,299.5 			"/>
			<g>
				<rect x="18.2" y="319.5" fill="#282827" width="14.1" height="8.7"/>
				<rect x="8.6" y="319.5" fill="#282827" width="5.3" height="8.7"/>
				<rect x="36.7" y="319.5" fill="#282827" width="5.3" height="8.7"/>
			</g>
			<g>
				<rect x="18.2" y="333.6" fill="#282827" width="14.1" height="8.7"/>
				<rect x="8.6" y="333.6" fill="#282827" width="5.3" height="8.7"/>
				<rect x="36.7" y="333.6" fill="#282827" width="5.3" height="8.7"/>
			</g>
			<g>
				<rect x="18.2" y="347.8" fill="#282827" width="14.1" height="8.7"/>
				<rect x="8.6" y="347.8" fill="#282827" width="5.3" height="8.7"/>
				<rect x="36.7" y="347.8" fill="#282827" width="5.3" height="8.7"/>
			</g>
			<g>
				<rect x="18.2" y="362" fill="#282827" width="14.1" height="8.7"/>
				<rect x="8.6" y="362" fill="#282827" width="5.3" height="8.7"/>
				<rect x="36.7" y="362" fill="#282827" width="5.3" height="8.7"/>
			</g>
			<polygon fill="#676868" points="25.3,278.1 18,291.3 18,299.5 32.5,299.5 32.5,291.3 			"/>
			<g>
				<polygon fill="#676868" points="124.7,282.9 119.1,293.1 119.1,299.5 130.3,299.5 130.3,293.1 				"/>
				<polygon fill="#676868" points="108.3,282.9 102.7,293.1 102.7,299.5 114,299.5 114,293.1 				"/>
				<polygon fill="#676868" points="92,282.9 86.4,293.1 86.4,299.5 97.6,299.5 97.6,293.1 				"/>
				<polygon fill="#676868" points="75.6,282.9 70,293.1 70,299.5 81.3,299.5 81.3,293.1 				"/>
				<polygon fill="#676868" points="59.3,282.9 53.7,293.1 53.7,299.5 64.9,299.5 64.9,293.1 				"/>
			</g>
			<rect x="50.5" y="299.5" fill="#4E4F4F" width="83" height="110.4"/>
			<g>
				<rect x="55" y="304.1" fill="#282827" width="8.4" height="15.4"/>
				<rect x="55" y="328.2" fill="#282827" width="8.4" height="15.4"/>
				<rect x="55" y="352.3" fill="#282827" width="8.4" height="15.4"/>
				<rect x="55" y="376.5" fill="#282827" width="8.4" height="15.4"/>
				<rect x="71.4" y="304.1" fill="#282827" width="8.4" height="15.4"/>
				<rect x="71.4" y="328.2" fill="#282827" width="8.4" height="15.4"/>
				<rect x="71.4" y="352.3" fill="#282827" width="8.4" height="15.4"/>
				<rect x="71.4" y="376.5" fill="#282827" width="8.4" height="15.4"/>
				<rect x="87.9" y="304.1" fill="#282827" width="8.4" height="15.4"/>
				<rect x="87.9" y="328.2" fill="#282827" width="8.4" height="15.4"/>
				<rect x="87.9" y="352.3" fill="#282827" width="8.4" height="15.4"/>
				<rect x="87.9" y="376.5" fill="#282827" width="8.4" height="15.4"/>
				<rect x="104.3" y="304.1" fill="#282827" width="8.4" height="15.4"/>
				<rect x="104.3" y="328.2" fill="#282827" width="8.4" height="15.4"/>
				<rect x="104.3" y="352.3" fill="#282827" width="8.4" height="15.4"/>
				<rect x="104.3" y="376.5" fill="#282827" width="8.4" height="15.4"/>
				<rect x="120.7" y="304.1" fill="#282827" width="8.4" height="15.4"/>
				<rect x="120.7" y="328.2" fill="#282827" width="8.4" height="15.4"/>
				<rect x="120.7" y="352.3" fill="#282827" width="8.4" height="15.4"/>
				<rect x="120.7" y="376.5" fill="#282827" width="8.4" height="15.4"/>
			</g>
			<line fill="none" stroke="#4E4F4F" stroke-width="1.972" stroke-miterlimit="10" x1="92" y1="271.4" x2="92" y2="218.6"/>
			<rect x="66.1" y="218.6" fill="#4E4F4F" width="25.9" height="17.1"/>
			<g>
				<rect x="204.4" y="389.7" fill="#4E4F4F" width="20.8" height="6.3"/>
				<polygon fill="#676868" points="197.2,337.4 155.3,379.3 197.2,379.3 				"/>
				<polygon fill="#676868" points="197.2,337.4 225.2,379.3 197.2,379.3 				"/>
				<line fill="none" stroke="#4E4F4F" stroke-width="1.972" stroke-miterlimit="10" x1="197.2" y1="396" x2="197.2" y2="337.3"/>
				<polygon fill="#404040" points="220.7,407.1 173.7,407.1 163.5,396 230.9,396 				"/>
			</g>
		</g>
		<rect x="225.2" y="344.7" fill="#404040" width="15.8" height="62.1"/>
		<rect x="233.1" y="351.1" fill="#404040" width="15.5" height="55.6"/>
	</g>
	<path fill="#676868" d="M2073.2,387l-4.6-0.4c-1-0.1-1.8-1-1.7-2l10.8-114c0.1-1,1-1.8,2-1.7l4.6,0.4c1,0.1,1.8,1,1.7,2l-10.8,114
		C2075.1,386.3,2074.2,387.1,2073.2,387z"/>
	<polygon fill="#676868" points="2103.3,378.9 2042.6,378.9 2062.6,366.6 2083.3,366.6 	"/>
	<rect x="2042.6" y="378.9" fill="#4E4F4F" width="60.7" height="10.6"/>
	<polyline fill="none" stroke="#676868" stroke-width="3.9441" stroke-miterlimit="10" points="1942.8,389.6 2078.3,306.6 
		2301.8,389.6 	"/>
	<polyline fill="none" stroke="#676868" stroke-width="3.9441" stroke-miterlimit="10" points="1961.2,389.6 2077.8,309.9 
		2263.8,389.6 	"/>
	<polyline fill="none" stroke="#676868" stroke-width="3.9441" stroke-miterlimit="10" points="2225.8,389.6 2078,313.1 
		1979.7,389.6 	"/>
	<polyline fill="none" stroke="#676868" stroke-width="3.9441" stroke-miterlimit="10" points="1998.2,389.6 2077.7,317.1 
		2187.7,389.6 	"/>
	<polyline fill="none" stroke="#676868" stroke-width="3.9441" stroke-miterlimit="10" points="2149.7,389.6 2077.3,320.9 
		2016.6,389.6 	"/>
	<polyline fill="none" stroke="#676868" stroke-width="3.9441" stroke-miterlimit="10" points="2035.1,389.6 2076.5,325.9 
		2112.5,389.6 	"/>
	<line fill="none" stroke="#676868" stroke-width="3.9441" stroke-miterlimit="10" x1="1938.6" y1="389.6" x2="2322.8" y2="389.6"/>
	<path fill="#4E4F4F" d="M2029.5,407.7c0,0-54.3-20.4-94.6-20.4s-61.2,20.4-61.2,20.4H2029.5z"/>
	<path fill="#4E4F4F" d="M2227.6,407.7c0,0,54.3-20.4,94.6-20.4s61.2,20.4,61.2,20.4H2227.6z"/>
	<rect x="2064.6" y="389.6" fill="#676868" width="16.4" height="18.2"/>
	<g>
		<circle fill="#676868" cx="1870.4" cy="375.2" r="18"/>
		
			<line fill="none" stroke="#676868" stroke-width="5.9161" stroke-miterlimit="10" x1="1870.4" y1="411.2" x2="1870.4" y2="393.2"/>
	</g>
	<g>
		<rect x="2376.3" y="265.7" fill="#4E4F4F" width="26" height="141.4"/>
		<rect x="2414.7" y="255.2" fill="#676868" width="46.6" height="154.7"/>
		<rect x="2301" y="265.7" fill="#404040" width="36" height="141.4"/>
		<rect x="2337" y="225.9" fill="#404040" width="39.5" height="184"/>
		<rect x="2400.6" y="309" fill="#404040" width="49.3" height="100.9"/>
		<rect x="2461.3" y="217.7" fill="#4E4F4F" width="56.4" height="189.5"/>
		<rect x="2517.7" y="277.2" fill="#4E4F4F" width="63.2" height="129.9"/>
		<polygon fill="#4E4F4F" points="2408.6,163.6 2405.3,163.6 2399.3,163.6 2395.9,163.6 2383.2,407.1 2395.9,407.1 2408.6,407.1 
			2421.4,407.1 		"/>
		<path fill="#676868" d="M2421.4,148.1c0-3.8-3.1-7-7-7h0.4v-5.1h-25v5.1h0.4c-3.8,0-7,3.1-7,7c0,3.8,3.1,7,7,7h-0.2
			c-2.3,0-4.2,1.9-4.2,4.2s1.9,4.2,4.2,4.2h24.6c2.3,0,4.2-1.9,4.2-4.2s-1.9-4.2-4.2-4.2h-0.2C2418.2,155.1,2421.4,152,2421.4,148.1
			z"/>
		<rect x="2396" y="123.5" fill="#676868" width="12.5" height="12.5"/>
		<rect x="2398.3" y="77.6" fill="#4E4F4F" width="8.1" height="46"/>
		<rect x="2399.3" y="45.4" fill="#4E4F4F" width="5.9" height="32.2"/>
		<path fill="#4E4F4F" d="M2408,81.4h-11.4c-0.7,0-1.2-0.5-1.2-1.2v-3.7c0-0.7,0.5-1.2,1.2-1.2h11.4c0.7,0,1.2,0.5,1.2,1.2v3.7
			C2409.2,80.8,2408.6,81.4,2408,81.4z"/>
		<rect x="2400.6" fill="#4E4F4F" width="3.4" height="45.4"/>
		<path fill="#676868" d="M2319.4,329.8c-43.4,0-80.3,19.2-93.6,45.8h187.2C2399.7,349,2362.8,329.8,2319.4,329.8z"/>
		<rect x="2225.8" y="375.6" fill="#4E4F4F" width="187.2" height="34.3"/>
		<rect x="2438" y="329.8" fill="#676868" width="46.6" height="80.1"/>
		<rect x="2484.6" y="296.1" fill="#676868" width="46.6" height="113.8"/>
	</g>
	<g>
		<rect x="2901.8" y="361.7" fill="#676868" width="61.2" height="46.8"/>
		<rect x="2990.5" y="362.4" fill="#676868" width="59.2" height="46.1"/>
		<rect x="3049.7" y="347" fill="#676868" width="29.5" height="61.5"/>
		<rect x="2901.8" y="347" fill="#4E4F4F" width="59.2" height="19.1"/>
		<rect x="2990.5" y="347" fill="#4E4F4F" width="59.2" height="19.1"/>
		<rect x="2961" y="347" fill="#676868" width="30.2" height="61.5"/>
		<rect x="2960.2" y="347" fill="#4E4F4F" width="31.9" height="19.1"/>
		<rect x="3049.7" y="347" fill="#4E4F4F" width="29.5" height="19.1"/>
		<rect x="2866.3" y="220.5" fill="#4E4F4F" width="35.5" height="188"/>
		<path fill="#282827" d="M2884.1,351c0,0-4.7,3-4.7,4.5s0,15.7,0,15.7h4.7h4.7c0,0,0-14.2,0-15.7S2884.1,351,2884.1,351z"/>
		<g>
			<path fill="#282827" d="M2874.6,258.1c0,0-1.6,2-1.6,3c0,1,0,18.5,0,18.5h1.6h1.6c0,0,0-17.5,0-18.5
				C2876.2,260.1,2874.6,258.1,2874.6,258.1z"/>
			<path fill="#282827" d="M2880.9,258.1c0,0-1.6,2-1.6,3c0,1,0,18.5,0,18.5h1.6h1.6c0,0,0-17.5,0-18.5
				C2882.5,260.1,2880.9,258.1,2880.9,258.1z"/>
			<path fill="#282827" d="M2887.2,258.1c0,0-1.6,2-1.6,3c0,1,0,18.5,0,18.5h1.6h1.6c0,0,0-17.5,0-18.5
				C2888.8,260.1,2887.2,258.1,2887.2,258.1z"/>
			<path fill="#282827" d="M2893.5,258.1c0,0-1.6,2-1.6,3c0,1,0,18.5,0,18.5h1.6h1.6c0,0,0-17.5,0-18.5
				C2895,260.1,2893.5,258.1,2893.5,258.1z"/>
		</g>
		<g>
			<path fill="#282827" d="M2878.8,285.5c0,0-3.1,2-3.1,3s0,10.5,0,10.5h3.1h3.1c0,0,0-9.5,0-10.5S2878.8,285.5,2878.8,285.5z"/>
			<g>
				<path fill="#282827" d="M2889.3,285.5c0,0-3.1,2-3.1,3s0,10.5,0,10.5h3.1h3.1c0,0,0-9.5,0-10.5S2889.3,285.5,2889.3,285.5z"/>
			</g>
		</g>
		<path fill="#282827" d="M2884.1,388.3c0,0-4.7,3-4.7,4.5s0,15.7,0,15.7h4.7h4.7c0,0,0-14.2,0-15.7S2884.1,388.3,2884.1,388.3z"/>
		<circle fill="#676868" cx="2884.1" cy="236.8" r="9.7"/>
		<polygon fill="#404040" points="2887,171.7 2881.1,171.7 2873.5,220.5 2894.6,220.5 		"/>
		
			<line fill="none" stroke="#4E4F4F" stroke-width="3.9441" stroke-miterlimit="10" x1="2883.6" y1="171.7" x2="2883.6" y2="145.9"/>
		<rect x="2883.6" y="145.9" fill="#4E4F4F" width="27.3" height="13.1"/>
		<path fill="#404040" d="M2981,392.1c0,0,2.6,1.6,2.6,2.5s0,8.6,0,8.6h-2.6h-2.6c0,0,0-7.8,0-8.6S2981,392.1,2981,392.1z"/>
		<path fill="#404040" d="M2970.4,392.1c0,0,2.6,1.6,2.6,2.5s0,8.6,0,8.6h-2.6h-2.6c0,0,0-7.8,0-8.6S2970.4,392.1,2970.4,392.1z"/>
		<g>
			<path fill="#404040" d="M2948,392.1c0,0,2.6,1.6,2.6,2.5s0,8.6,0,8.6h-2.6h-2.6c0,0,0-7.8,0-8.6S2948,392.1,2948,392.1z"/>
			<path fill="#404040" d="M2931.4,392.1c0,0,2.6,1.6,2.6,2.5s0,8.6,0,8.6h-2.6h-2.6c0,0,0-7.8,0-8.6S2931.4,392.1,2931.4,392.1z"/>
			<path fill="#404040" d="M2914.8,392.1c0,0,2.6,1.6,2.6,2.5s0,8.6,0,8.6h-2.6h-2.6c0,0,0-7.8,0-8.6S2914.8,392.1,2914.8,392.1z"/>
		</g>
		<g>
			<path fill="#404040" d="M3036.7,392.1c0,0,2.6,1.6,2.6,2.5s0,8.6,0,8.6h-2.6h-2.6c0,0,0-7.8,0-8.6S3036.7,392.1,3036.7,392.1z"/>
			<path fill="#404040" d="M3020.1,392.1c0,0,2.6,1.6,2.6,2.5s0,8.6,0,8.6h-2.6h-2.6c0,0,0-7.8,0-8.6S3020.1,392.1,3020.1,392.1z"/>
			<path fill="#404040" d="M3003.6,392.1c0,0,2.6,1.6,2.6,2.5s0,8.6,0,8.6h-2.6h-2.6c0,0,0-7.8,0-8.6S3003.6,392.1,3003.6,392.1z"/>
		</g>
		<g>
			<rect x="2935.5" y="334.5" fill="#676868" width="4.2" height="17.4"/>
			<rect x="2923.1" y="334.5" fill="#676868" width="4.2" height="17.4"/>
		</g>
		<g>
			<polygon fill="#404040" points="2904.3,347 2916.1,347 2913,331.4 2907.4,331.4 			"/>
			<polygon fill="#404040" points="2946.7,347 2958.5,347 2955.4,331.4 2949.8,331.4 			"/>
		</g>
		<g>
			<polygon fill="#404040" points="2993,347 3004.9,347 3001.8,331.4 2996.2,331.4 			"/>
			<polygon fill="#404040" points="3035.4,347 3047.2,347 3044.1,331.4 3038.5,331.4 			"/>
		</g>
		<polygon fill="#404040" points="2967,320.4 2984.5,320.4 2990.5,347 2961,347 		"/>
		<path fill="#404040" d="M3069.8,392.1c0,0,2.6,1.6,2.6,2.5s0,8.6,0,8.6h-2.6h-2.6c0,0,0-7.8,0-8.6S3069.8,392.1,3069.8,392.1z"/>
		<path fill="#404040" d="M3059.1,392.1c0,0,2.6,1.6,2.6,2.5s0,8.6,0,8.6h-2.6h-2.6c0,0,0-7.8,0-8.6S3059.1,392.1,3059.1,392.1z"/>
		<polygon fill="#404040" points="3055.8,320.4 3073.2,320.4 3079.3,347 3049.7,347 		"/>
		<rect x="2805.1" y="361.7" fill="#676868" width="61.2" height="46.8"/>
		<rect x="2718.4" y="362.4" fill="#676868" width="59.2" height="46.1"/>
		<rect x="2688.8" y="347" fill="#676868" width="29.5" height="61.5"/>
		<rect x="2807.1" y="347" fill="#4E4F4F" width="59.2" height="19.1"/>
		<rect x="2718.4" y="347" fill="#4E4F4F" width="59.2" height="19.1"/>
		<rect x="2776.9" y="347" fill="#676868" width="30.2" height="61.5"/>
		<rect x="2776.1" y="347" fill="#4E4F4F" width="31.9" height="19.1"/>
		<rect x="2688.8" y="347" fill="#4E4F4F" width="29.5" height="19.1"/>
		<path fill="#404040" d="M2787.1,392.1c0,0-2.6,1.6-2.6,2.5s0,8.6,0,8.6h2.6h2.6c0,0,0-7.8,0-8.6S2787.1,392.1,2787.1,392.1z"/>
		<path fill="#404040" d="M2797.7,392.1c0,0-2.6,1.6-2.6,2.5s0,8.6,0,8.6h2.6h2.6c0,0,0-7.8,0-8.6S2797.7,392.1,2797.7,392.1z"/>
		<g>
			<path fill="#404040" d="M2820.1,392.1c0,0-2.6,1.6-2.6,2.5s0,8.6,0,8.6h2.6h2.6c0,0,0-7.8,0-8.6S2820.1,392.1,2820.1,392.1z"/>
			<path fill="#404040" d="M2836.7,392.1c0,0-2.6,1.6-2.6,2.5s0,8.6,0,8.6h2.6h2.6c0,0,0-7.8,0-8.6S2836.7,392.1,2836.7,392.1z"/>
			<path fill="#404040" d="M2853.3,392.1c0,0-2.6,1.6-2.6,2.5s0,8.6,0,8.6h2.6h2.6c0,0,0-7.8,0-8.6S2853.3,392.1,2853.3,392.1z"/>
		</g>
		<g>
			<path fill="#404040" d="M2731.4,392.1c0,0-2.6,1.6-2.6,2.5s0,8.6,0,8.6h2.6h2.6c0,0,0-7.8,0-8.6S2731.4,392.1,2731.4,392.1z"/>
			<path fill="#404040" d="M2748,392.1c0,0-2.6,1.6-2.6,2.5s0,8.6,0,8.6h2.6h2.6c0,0,0-7.8,0-8.6S2748,392.1,2748,392.1z"/>
			<path fill="#404040" d="M2764.5,392.1c0,0-2.6,1.6-2.6,2.5s0,8.6,0,8.6h2.6h2.6c0,0,0-7.8,0-8.6S2764.5,392.1,2764.5,392.1z"/>
		</g>
		<g>
			<rect x="2828.4" y="334.5" fill="#676868" width="4.2" height="17.4"/>
			<rect x="2840.7" y="334.5" fill="#676868" width="4.2" height="17.4"/>
		</g>
		<g>
			<polygon fill="#404040" points="2863.8,347 2852,347 2855.1,331.4 2860.7,331.4 			"/>
			<polygon fill="#404040" points="2821.4,347 2809.6,347 2812.7,331.4 2818.3,331.4 			"/>
		</g>
		<g>
			<polygon fill="#404040" points="2775.1,347 2763.2,347 2766.3,331.4 2772,331.4 			"/>
			<polygon fill="#404040" points="2732.7,347 2720.9,347 2724,331.4 2729.6,331.4 			"/>
		</g>
		<polygon fill="#404040" points="2801.1,320.4 2783.6,320.4 2777.6,347 2807.1,347 		"/>
		<path fill="#404040" d="M2698.3,392.1c0,0-2.6,1.6-2.6,2.5s0,8.6,0,8.6h2.6h2.6c0,0,0-7.8,0-8.6S2698.3,392.1,2698.3,392.1z"/>
		<path fill="#404040" d="M2709,392.1c0,0-2.6,1.6-2.6,2.5s0,8.6,0,8.6h2.6h2.6c0,0,0-7.8,0-8.6S2709,392.1,2709,392.1z"/>
		<polygon fill="#404040" points="2712.3,320.4 2694.9,320.4 2688.8,347 2718.4,347 		"/>
	</g>
	<g>
		<path fill="#282827" d="M3254,289.1c0-3.7-3.1-6.8-6.8-6.8s-6.8,3.1-6.8,6.8v11.9h13.6V289.1z"/>
		<path fill="#282827" d="M3237.1,291.9c0-2.9-2.3-5.2-5.2-5.2s-5.2,2.3-5.2,5.2v9h10.4V291.9z"/>
		<path fill="#282827" d="M3267.6,291.9c0-2.9-2.3-5.2-5.2-5.2c-2.9,0-5.2,2.3-5.2,5.2v9h10.4V291.9z"/>
	</g>
	<path fill="#404040" d="M3247.2,260.7c-12.4,0-22.8,9.5-24.2,21.6h48.3C3270,270.2,3259.6,260.7,3247.2,260.7z"/>
	<rect x="3220.8" y="300.9" fill="#676868" width="52.8" height="5.5"/>
	<circle fill="#404040" cx="3247.2" cy="321.6" r="13.6"/>
	
		<polyline fill="none" stroke="#676868" stroke-width="3.9441" stroke-linecap="round" stroke-linejoin="round" stroke-miterlimit="10" points="
		3247.2,310.6 3247.2,321.6 3253.4,318.5 	"/>
	<rect x="3226.2" y="311.8" fill="#282827" width="4" height="21.4"/>
	<rect x="3264.2" y="311.8" fill="#282827" width="4" height="21.4"/>
	<rect x="3209.5" y="336" fill="#676868" width="75.4" height="4.3"/>
	<rect x="3165.6" y="366.2" fill="#676868" width="163.1" height="41.2"/>
	<g>
		<g>
			<rect x="3176.3" y="376.4" fill="#282827" width="7.3" height="15.5"/>
			<rect x="3195.1" y="376.4" fill="#282827" width="7.3" height="15.5"/>
		</g>
		<g>
			<rect x="3292" y="376.4" fill="#282827" width="7.3" height="15.5"/>
			<rect x="3310.8" y="376.4" fill="#282827" width="7.3" height="15.5"/>
		</g>
	</g>
	<rect x="3237.1" y="379.8" fill="#282827" width="20.1" height="27.6"/>
	<g>
		<rect x="3211.4" y="340.3" fill="#676868" width="4.8" height="25.9"/>
		<rect x="3228.1" y="340.3" fill="#676868" width="4.8" height="25.9"/>
		<rect x="3244.8" y="340.3" fill="#676868" width="4.8" height="25.9"/>
		<rect x="3261.5" y="340.3" fill="#676868" width="4.8" height="25.9"/>
		<rect x="3278.2" y="340.3" fill="#676868" width="4.8" height="25.9"/>
	</g>
	<g>
		<circle fill="#676868" cx="2562.9" cy="375.2" r="18"/>
		
			<line fill="none" stroke="#676868" stroke-width="5.9161" stroke-miterlimit="10" x1="2562.9" y1="411.2" x2="2562.9" y2="393.2"/>
	</g>
	<g>
		<circle fill="#676868" cx="2598.9" cy="375.2" r="18"/>
		
			<line fill="none" stroke="#676868" stroke-width="5.9161" stroke-miterlimit="10" x1="2598.9" y1="411.2" x2="2598.9" y2="393.2"/>
	</g>
	<g>
		<circle fill="#676868" cx="3103.4" cy="375.2" r="18"/>
		
			<line fill="none" stroke="#676868" stroke-width="5.9161" stroke-miterlimit="10" x1="3103.4" y1="411.2" x2="3103.4" y2="393.2"/>
	</g>
	<g>
		<circle fill="#676868" cx="3139.3" cy="375.2" r="18"/>
		
			<line fill="none" stroke="#676868" stroke-width="5.9161" stroke-miterlimit="10" x1="3139.3" y1="411.2" x2="3139.3" y2="393.2"/>
	</g>
	<polygon fill="#676868" points="870.3,189.1 812.9,159.6 812.9,294.6 870.3,294.6 	"/>
	<rect x="870.6" y="134.8" fill="#404040" width="109.3" height="276.3"/>
	<rect x="957.1" y="303.5" fill="#4E4F4F" width="105" height="107.6"/>
	<path fill="#282827" d="M905.5,194.7h-37.4l-20.7,31.4v187.2h77.8V226.1L905.5,194.7z M902.7,255.5h-17.3v-32
		c0-4.8,3.9-8.6,8.6-8.6c4.8,0,8.6,3.9,8.6,8.6V255.5z"/>
	<g>
		<polygon fill="#4E4F4F" points="1033.3,236.1 1006.4,236.1 999.9,217.6 1039.2,217.6 		"/>
		<polygon fill="#4E4F4F" points="1014,236.7 1024.8,236.7 1030.4,392.8 1008.6,392.8 		"/>
		<path fill="#4E4F4F" d="M1019.5,212c-7.8,0-14.9,2.1-19.6,5.5l19,4.9l20.3-4.9C1034.4,214.2,1027.4,212,1019.5,212z"/>
		<polygon fill="#4E4F4F" points="1033,236.1 1023.7,239.8 1014.6,239.8 1006.1,236.1 1021.3,233 		"/>
		<rect x="1018.9" y="186.1" fill="#4E4F4F" width="1.3" height="30.4"/>
		<rect x="1012.3" y="209" fill="#4E4F4F" width="14.5" height="5.8"/>
	</g>
	<rect x="1018.7" y="272.9" fill="#4E4F4F" width="43.3" height="111.4"/>
	<rect x="789.7" y="276" fill="#4E4F4F" width="87.8" height="135"/>
	<path fill="#282827" d="M838.7,336.9v16l-16-16L798,361.6V411h49.4v-74.1H838.7z M818.8,402h-14.2v-14.2h14.2V402z M818.8,381.5
		h-14.2v-14.3h14.2V381.5z M840.8,402h-14.3v-14.2h14.3V402z M840.8,381.5h-14.3v-14.3h14.3V381.5z"/>
	<path fill="#282827" d="M991.1,336.9v16l-16-16l-24.7,24.7V411h49.4v-74.1H991.1z M971.3,402h-14.2v-14.2h14.2V402z M971.3,381.5
		h-14.2v-14.3h14.2V381.5z M993.3,402H979v-14.2h14.3V402z M993.3,381.5H979v-14.3h14.3V381.5z"/>
	<path fill="#282827" d="M1046.4,336.9v16l-16-16l-24.7,24.7V411h49.4v-74.1H1046.4z M1026.6,402h-14.2v-14.2h14.2V402z
		 M1026.6,381.5h-14.2v-14.3h14.2V381.5z M1048.6,402h-14.3v-14.2h14.3V402z M1048.6,381.5h-14.3v-14.3h14.3V381.5z"/>
	<path fill="#282827" d="M2325.3,336.9v16l-16-16l-24.7,24.7V411h49.4v-74.1H2325.3z M2305.5,402h-14.2v-14.2h14.2V402z
		 M2305.5,381.5h-14.2v-14.3h14.2V381.5z M2327.5,402h-14.3v-14.2h14.3V402z M2327.5,381.5h-14.3v-14.3h14.3V381.5z"/>
	<path fill="#282827" d="M2380.6,336.9v16l-16-16l-24.7,24.7V411h49.4v-74.1H2380.6z M2360.7,402h-14.2v-14.2h14.2V402z
		 M2360.7,381.5h-14.2v-14.3h14.2V381.5z M2382.7,402h-14.3v-14.2h14.3V402z M2382.7,381.5h-14.3v-14.3h14.3V381.5z"/>
	<g>
		<path fill="#4E4F4F" d="M1377.9,336.9v16l-16-16l-24.7,24.7V411h49.4v-74.1H1377.9z M1358,402h-14.2v-14.2h14.2V402z M1358,381.5
			h-14.2v-14.3h14.2V381.5z M1380,402h-14.3v-14.2h14.3V402z M1380,381.5h-14.3v-14.3h14.3V381.5z"/>
		<path fill="#676868" d="M1109.8,400.7l-9.4-13.2h4.4c1.1,0,1.4-0.7,0.8-1.6l-9.5-13.4h2.9c1.1,0,1.4-0.7,0.8-1.6l-8.6-12.2
			c-0.6-0.9-1.6-0.9-2.2,0l-8.6,12.2c-0.6,0.9-0.2,1.6,0.8,1.6h2.9l-9.5,13.4c-0.6,0.9-0.2,1.6,0.8,1.6h4.4l-9.4,13.2
			c-0.6,0.9-0.2,1.6,0.8,1.6h11.3v9h15.2v-9h11.3C1110.1,402.2,1110.4,401.5,1109.8,400.7z"/>
		<g>
			<polygon fill="#676868" points="1186,323.8 1164.2,335.6 1164.2,410.8 1207.9,410.8 1207.9,335.6 			"/>
			<polygon fill="#676868" points="1310,323.8 1288.2,335.6 1288.2,410.8 1331.8,410.8 1331.8,335.6 			"/>
			<rect x="1120.9" y="319.1" fill="#676868" width="99.6" height="4.7"/>
			<line fill="none" stroke="#676868" stroke-width="7.8881" stroke-miterlimit="10" x1="1275.9" y1="307" x2="1310.7" y2="327"/>
			<g>
				<polygon fill="#4E4F4F" points="1264.4,289.6 1264.4,289.6 1264.4,265.3 1250.5,261.8 1236.5,265.3 1236.5,289.6 1220.5,297.4 
					1220.5,410.8 1280.4,410.8 1280.4,297.4 				"/>
				<polygon fill="#4E4F4F" points="1250.5,261.8 1250.5,261.8 1250.5,261.8 				"/>
			</g>
			<rect x="1183.1" y="370.8" fill="#4E4F4F" width="105.1" height="39.9"/>
			<polygon fill="#676868" points="1137.4,323.8 1115.6,335.6 1115.6,410.8 1159.2,410.8 1159.2,335.6 			"/>
			<g>
				<path fill="#282827" d="M1247.9,303c2.6,2.6,2.6,6.8,2.6,6.8s-4.2,0-6.8-2.6c-2.6-2.6-2.6-6.8-2.6-6.8S1245.3,300.4,1247.9,303z
					"/>
				<path fill="#282827" d="M1253.5,298.4c0,3.7-3,6.7-3,6.7s-3-3-3-6.7s3-6.7,3-6.7S1253.5,294.7,1253.5,298.4z"/>
				<path fill="#282827" d="M1247.9,311.1c2.6,2.6,2.6,6.8,2.6,6.8s-4.2,0-6.8-2.6c-2.6-2.6-2.6-6.8-2.6-6.8
					S1245.3,308.5,1247.9,311.1z"/>
				<path fill="#282827" d="M1247.9,319.2c2.6,2.6,2.6,6.8,2.6,6.8s-4.2,0-6.8-2.6c-2.6-2.6-2.6-6.8-2.6-6.8
					S1245.3,316.6,1247.9,319.2z"/>
				<path fill="#282827" d="M1247.9,327.4c2.6,2.6,2.6,6.8,2.6,6.8s-4.2,0-6.8-2.6c-2.6-2.6-2.6-6.8-2.6-6.8
					S1245.3,324.8,1247.9,327.4z"/>
				<path fill="#282827" d="M1247.9,335.5c2.6,2.6,2.6,6.8,2.6,6.8s-4.2,0-6.8-2.6c-2.6-2.6-2.6-6.8-2.6-6.8
					S1245.3,332.9,1247.9,335.5z"/>
				<path fill="#282827" d="M1253.1,303c-2.6,2.6-2.6,6.8-2.6,6.8s4.2,0,6.8-2.6c2.6-2.6,2.6-6.8,2.6-6.8S1255.7,300.4,1253.1,303z"
					/>
				<path fill="#282827" d="M1253.1,311.1c-2.6,2.6-2.6,6.8-2.6,6.8s4.2,0,6.8-2.6c2.6-2.6,2.6-6.8,2.6-6.8
					S1255.7,308.5,1253.1,311.1z"/>
				<path fill="#282827" d="M1253.1,319.2c-2.6,2.6-2.6,6.8-2.6,6.8s4.2,0,6.8-2.6c2.6-2.6,2.6-6.8,2.6-6.8
					S1255.7,316.6,1253.1,319.2z"/>
				<path fill="#282827" d="M1253.1,327.4c-2.6,2.6-2.6,6.8-2.6,6.8s4.2,0,6.8-2.6c2.6-2.6,2.6-6.8,2.6-6.8
					S1255.7,324.8,1253.1,327.4z"/>
				<path fill="#282827" d="M1253.1,335.5c-2.6,2.6-2.6,6.8-2.6,6.8s4.2,0,6.8-2.6c2.6-2.6,2.6-6.8,2.6-6.8
					S1255.7,332.9,1253.1,335.5z"/>
			</g>
			
				<line fill="none" stroke="#282827" stroke-width="3.9441" stroke-miterlimit="10" x1="1250.5" y1="342.3" x2="1250.5" y2="370.8"/>
		</g>
	</g>
	<g>
		<path fill="#282827" d="M2500.6,336.9v16l-16-16l-24.7,24.7V411h49.4v-74.1H2500.6z M2480.8,402h-14.2v-14.2h14.2V402z
			 M2480.8,381.5h-14.2v-14.3h14.2V381.5z M2502.8,402h-14.3v-14.2h14.3V402z M2502.8,381.5h-14.3v-14.3h14.3V381.5z"/>
	</g>
	<g>
		<rect x="2632.5" y="366" fill="#282827" width="40.4" height="37.2"/>
		<path fill="#404040" d="M2668.7,336.9v16l-16-16l-24.7,24.7V411h49.4v-74.1H2668.7z M2648.8,402h-14.2v-14.2h14.2V402z
			 M2648.8,381.5h-14.2v-14.3h14.2V381.5z M2670.8,402h-14.3v-14.2h14.3V402z M2670.8,381.5h-14.3v-14.3h14.3V381.5z"/>
	</g>
	<g>
		<rect x="275.8" y="362" fill="#4E4F4F" width="43.1" height="42.7"/>
		<g>
			<path fill="#282827" d="M312.6,336.9v16l-16-16l-24.7,24.7V411h49.4v-74.1H312.6z M292.8,402h-14.2v-14.2h14.2V402z M292.8,381.5
				h-14.2v-14.3h14.2V381.5z M314.8,402h-14.3v-14.2h14.3V402z M314.8,381.5h-14.3v-14.3h14.3V381.5z"/>
		</g>
	</g>
</g>
</svg>
