<svg version="1.0" id="Layer_1" xmlns="http://www.w3.org/2000/svg" xmlns:xlink="http://www.w3.org/1999/xlink" x="0px" y="0px"
	 viewBox="0 0 273 218.6" enable-background="new 0 0 273 218.6" xml:space="preserve">
<polygon fill="#F2F2F2" points="102.4,43 57,19.7 57,126.5 102.4,126.5 "/>
<rect x="99.7" y="0" fill="#F2F2F2" width="86.5" height="218.6"/>
<polygon fill="#D52B27" points="141,76.8 125.4,53.4 95.8,53.4 79.4,76.8 79.4,216.5 141,216.5 "/>
<rect x="168.8" y="31.3" fill="#D52B27" width="61.6" height="185.2"/>
<rect x="168.1" y="125.9" fill="#F2F2F2" width="83.1" height="92.7"/>
<polygon fill="#F2F2F2" points="202.2,198 251.8,197.5 251.8,102.5 202.2,103 "/>
<rect x="21.8" y="111.8" fill="#F2F2F2" width="83.3" height="106.8"/>
<polygon fill="#D52B27" points="179.7,152.8 165.9,166.5 165.9,152.8 158.4,152.8 158.4,216.5 200.9,216.5 200.9,174 "/>
<rect x="164.1" y="178.9" fill="#F2F2F2" width="9.7" height="12.3"/>
<rect x="178.1" y="196.5" fill="#F2F2F2" width="17.1" height="12.3"/>
<rect x="178.1" y="178.9" fill="#F2F2F2" width="17.1" height="12.3"/>
<rect x="164.1" y="196.5" fill="#F2F2F2" width="9.7" height="22.1"/>
<polygon fill="#D52B27" points="52.4,152.8 38.7,166.5 38.7,152.8 31.2,152.8 31.2,216.5 73.7,216.5 73.7,174 "/>
<rect x="36.8" y="178.9" fill="#F2F2F2" width="9.7" height="12.3"/>
<rect x="50.9" y="196.5" fill="#F2F2F2" width="17.1" height="12.3"/>
<rect x="50.9" y="178.9" fill="#F2F2F2" width="17.1" height="12.3"/>
<rect x="36.8" y="196.5" fill="#F2F2F2" width="9.7" height="21.2"/>
<polygon fill="#D52B27" points="94.5,152.8 80.8,166.5 80.8,152.8 73.3,152.8 73.3,216.5 115.8,216.5 115.8,174 "/>
<rect x="78.9" y="178.9" fill="#F2F2F2" width="9.7" height="12.3"/>
<rect x="93" y="196.5" fill="#F2F2F2" width="17.1" height="12.3"/>
<rect x="93" y="178.9" fill="#F2F2F2" width="17.1" height="12.3"/>
<rect x="78.9" y="196.5" fill="#F2F2F2" width="9.7" height="21.2"/>
<polygon fill="#F2F2F2" points="136,152.8 122.3,166.5 122.3,152.8 114.8,152.8 114.8,216.5 157.3,216.5 157.3,174 "/>
<rect x="121.4" y="178.9" fill="#D52B27" width="9.7" height="12.3"/>
<rect x="135.5" y="196.5" fill="#D52B27" width="17.1" height="12.3"/>
<rect x="135.5" y="178.9" fill="#D52B27" width="17.1" height="12.3"/>
<rect x="121.4" y="196.5" fill="#D52B27" width="9.7" height="20"/>
<polygon fill="#D52B27" points="220.9,152.8 207.2,166.5 207.2,152.8 199.6,152.8 199.6,216.5 242.2,216.5 242.2,174 "/>
<rect x="205.3" y="178.9" fill="#F2F2F2" width="9.7" height="12.3"/>
<rect x="219.4" y="196.5" fill="#F2F2F2" width="17.1" height="12.3"/>
<rect x="219.4" y="178.9" fill="#F2F2F2" width="17.1" height="12.3"/>
<rect x="205.3" y="196.5" fill="#F2F2F2" width="9.7" height="21.2"/>
<line fill="none" stroke="#D52B27" stroke-width="4" stroke-miterlimit="10" x1="273" y1="218.6" x2="0" y2="218.6"/>
<rect x="209.2" y="92.4" fill="#F2F2F2" width="35.5" height="20.1"/>
</svg>
