<svg version="1.0" xmlns="http://www.w3.org/2000/svg" xmlns:xlink="http://www.w3.org/1999/xlink" x="0px" y="0px"
	 viewBox="0 0 273 218.6" enable-background="new 0 0 273 218.6" xml:space="preserve">
<g id="Layer_1">
</g>
<g id="Layer_2">
	<g>
		<g>
			<path fill="#D52B27" d="M110.3,192.6L125,172h-6.9c-1.7,0-2.2-1.1-1.3-2.5l14.9-21h-4.6c-1.7,0-2.2-1.1-1.3-2.5l13.5-19
				c1-1.3,2.5-1.3,3.5,0l13.5,19c1,1.3,0.4,2.5-1.3,2.5h-4.6l14.9,21c1,1.3,0.4,2.5-1.3,2.5h-6.9l14.6,20.6c1,1.3,0.4,2.5-1.3,2.5
				h-17.7v14h-23.8v-14h-17.7C110,195.1,109.4,194,110.3,192.6z"/>
			<path fill="#D52B27" d="M26,75.2l14.6-20.6h-6.9c-1.7,0-2.2-1.1-1.3-2.5l14.9-21h-4.6c-1.7,0-2.2-1.1-1.3-2.5L55,9.7
				c1-1.3,2.5-1.3,3.5,0l13.5,19c1,1.3,0.4,2.5-1.3,2.5h-4.6l14.9,21c1,1.3,0.4,2.5-1.3,2.5H73l14.6,20.6c1,1.3,0.4,2.5-1.3,2.5
				H68.7v14H44.9v-14H27.2C25.6,77.7,25,76.5,26,75.2z"/>
			<path fill="#D52B27" d="M198.1,74.6L212.8,54h-6.9c-1.7,0-2.2-1.1-1.3-2.5l14.9-21H215c-1.7,0-2.2-1.1-1.3-2.5l13.5-19
				c1-1.3,2.5-1.3,3.5,0l13.5,19c1,1.3,0.4,2.5-1.3,2.5h-4.6l14.9,21c1,1.3,0.4,2.5-1.3,2.5h-6.9l14.6,20.6c1,1.3,0.4,2.5-1.3,2.5
				h-17.7v14h-23.8v-14h-17.7C197.7,77.1,197.2,76,198.1,74.6z"/>
			<g>
				<polygon fill="#D52B27" points="223.8,117.9 202.3,139.3 202.3,117.9 190.6,117.9 190.6,217.3 256.9,217.3 256.9,151.1 				"/>
				<g>
					<g>
						<g>
							<rect x="228.9" y="158.7" fill="#FFFFFF" width="19.1" height="19.1"/>
						</g>
						<g>
							<rect x="199.4" y="158.7" fill="#FFFFFF" width="19.1" height="19.1"/>
						</g>
						<g>
							<rect x="228.9" y="186.2" fill="#FFFFFF" width="19.1" height="19.1"/>
						</g>
						<g>
							<rect x="199.4" y="186.2" fill="#FFFFFF" width="19.1" height="19.1"/>
						</g>
					</g>
				</g>
			</g>
			<g>
				<polygon fill="#D52B27" points="58.6,117.9 37.2,139.3 37.2,117.9 25.5,117.9 25.5,217.3 91.7,217.3 91.7,151.1 				"/>
				<g>
					<g>
						<g>
							<rect x="63.8" y="158.7" fill="#FFFFFF" width="19.1" height="19.1"/>
						</g>
						<g>
							<rect x="34.3" y="158.7" fill="#FFFFFF" width="19.1" height="19.1"/>
						</g>
						<g>
							<rect x="63.8" y="186.2" fill="#FFFFFF" width="19.1" height="19.1"/>
						</g>
						<g>
							<rect x="34.3" y="186.2" fill="#FFFFFF" width="19.1" height="19.1"/>
						</g>
					</g>
				</g>
			</g>
			<rect x="25.5" y="206.3" fill="#D52B27" width="231.4" height="12.4"/>
			<g>
				<polygon fill="#D52B27" points="141.2,-0.1 119.8,21.3 119.8,-0.1 108.1,-0.1 108.1,99.3 174.3,99.3 174.3,33 				"/>
				<g>
					<g>
						<g>
							<rect x="146.4" y="40.6" fill="#FFFFFF" width="19.1" height="19.1"/>
						</g>
						<g>
							<rect x="116.9" y="40.6" fill="#FFFFFF" width="19.1" height="19.1"/>
						</g>
						<g>
							<rect x="146.4" y="68.1" fill="#FFFFFF" width="19.1" height="19.1"/>
						</g>
						<g>
							<rect x="116.9" y="68.1" fill="#FFFFFF" width="19.1" height="19.1"/>
						</g>
					</g>
				</g>
			</g>
			<rect x="25.5" y="88.3" fill="#D52B27" width="232.5" height="12.4"/>
		</g>
	</g>
</g>
</svg>
